<svg xmlns="http://www.w3.org/2000/svg" width="722" height="598" viewBox="0 0 722 598">
  <g transform="matrix(1, 0, 0, 1, 10, -40)">
    <path d="M 562.842 381.355 C 557.892 382.175 550.872 382.835 547.242 382.845 L 540.642 382.845 L 535.672 377.095 C 532.942 373.935 530.362 370.765 529.942 370.055 C 529.432 369.195 531.502 366.295 536.002 361.545 C 544.732 352.345 548.972 346.955 553.872 338.845 C 562.892 323.925 569.492 307.405 572.252 292.845 C 572.922 289.265 573.902 284.455 574.412 282.155 C 575.802 275.895 575.532 251.345 573.982 243.345 C 568.202 213.505 556.572 191.065 536.362 170.785 C 520.192 154.545 502.392 143.505 483.342 137.895 C 469.542 133.825 466.122 133.125 453.202 131.735 C 430.892 129.325 395.622 134.445 380.472 142.275 C 378.802 143.135 376.562 143.845 375.492 143.845 C 373.432 143.845 365.582 148.035 356.342 154.055 L 350.842 157.645 L 327.342 158.325 C 314.422 158.695 303.692 159.415 303.512 159.925 C 303.082 161.105 299.632 161.125 298.902 159.945 C 298.592 159.445 300.142 156.645 302.342 153.725 C 304.722 150.555 305.842 149.125 306.082 147.565 C 306.292 146.225 305.852 144.785 305.022 142.055 C 304.972 141.905 304.932 141.765 304.882 141.615 C 304.092 139.015 302.692 132.785 301.772 127.775 L 300.102 118.675 L 303.972 114.675 C 306.102 112.475 311.982 107.325 317.042 103.235 C 322.112 99.145 326.522 95.365 326.852 94.825 C 328.182 92.675 332.992 94.155 346.342 100.845 C 354.032 104.695 361.122 107.845 362.102 107.845 C 363.092 107.845 364.782 107.225 365.872 106.475 C 367.522 105.325 373.042 102.955 385.842 97.905 C 387.352 97.305 389.052 93.425 392.732 82.225 C 395.432 74.045 398.332 66.785 399.182 66.095 C 400.162 65.305 404.032 64.845 409.782 64.845 C 414.762 64.845 422.672 64.165 427.342 63.345 C 439.532 61.195 439.622 61.215 442.132 66.095 C 443.332 68.435 445.902 73.045 447.842 76.345 C 449.782 79.645 451.992 83.745 452.752 85.465 C 454.582 89.605 457.982 91.845 462.442 91.845 C 464.442 91.845 469.632 92.735 473.962 93.825 C 478.302 94.925 482.582 95.825 483.482 95.825 C 485.062 95.845 489.602 92.365 502.602 81.195 C 506.872 77.525 509.012 75.375 511.502 74.825 C 514.622 74.145 518.282 75.965 527.332 80.455 C 528.422 80.995 529.582 81.575 530.842 82.185 L 548.392 90.845 L 547.882 98.595 C 547.612 102.855 547.132 110.445 546.842 115.445 L 546.292 124.545 L 550.242 127.165 C 552.422 128.595 557.162 132.545 560.782 135.935 C 564.172 139.105 565.762 140.745 567.672 141.305 C 569.632 141.885 571.922 141.335 576.822 140.155 C 577.302 140.035 577.812 139.915 578.342 139.785 C 580.812 139.195 585.762 138.465 589.342 138.175 C 592.922 137.875 596.272 137.235 596.792 136.745 C 599.352 134.325 601.982 136.105 607.682 144.125 C 617.852 158.445 621.522 164.695 620.902 166.655 C 620.582 167.655 617.402 173.565 613.832 179.785 C 610.262 186.005 607.342 191.435 607.342 191.845 C 607.342 192.265 606.672 193.165 605.842 193.845 C 603.812 195.525 603.952 198.715 606.302 204.015 C 607.462 206.645 610.512 217.325 611.342 219.745 C 612.822 224.095 612.932 224.175 620.842 226.575 C 631.192 229.715 642.202 233.815 642.782 234.755 C 643.332 235.645 643.762 272.815 643.222 273.165 C 643.012 273.305 640.212 274.755 637.002 276.385 C 633.792 278.015 629.772 280.585 628.072 282.095 C 626.382 283.605 623.082 285.765 620.752 286.895 C 618.412 288.025 616.052 289.485 615.512 290.145 C 614.962 290.805 613.362 295.615 611.952 300.845 C 610.542 306.075 608.852 312.185 608.202 314.445 L 607.012 318.535 L 612.472 325.445 C 620.712 335.845 626.342 344.235 626.342 346.105 C 626.342 348.705 610.242 377.615 607.982 379.075 C 607.352 379.485 598.962 379.825 589.342 379.845 C 578.782 379.865 568.272 380.465 562.842 381.355 Z M 493.092 383.185 C 462.892 384.035 444.102 383.995 442.792 383.075 C 442.222 382.675 440.662 380.765 439.342 378.845 C 438.022 376.925 436.672 375.115 436.362 374.845 C 436.042 374.575 434.002 371.865 431.832 368.845 C 429.662 365.825 427.292 362.735 426.582 361.985 C 425.862 361.245 423.532 358.075 421.412 354.945 C 419.292 351.825 416.762 348.605 415.792 347.805 C 414.822 347.005 407.612 337.795 399.762 327.345 C 391.902 316.895 382.752 304.865 379.412 300.605 C 376.072 296.345 373.342 292.405 373.342 291.855 C 373.342 291.295 374.352 289.855 375.592 288.655 C 376.832 287.445 379.422 284.355 381.342 281.795 C 383.262 279.235 386.772 274.595 389.122 271.485 L 393.402 265.845 L 408.122 265.855 C 428.112 265.865 447.702 264.005 453.192 261.585 C 458.792 259.115 464.772 253.675 468.052 248.085 C 470.382 244.095 471.222 241.495 473.002 232.665 C 473.362 230.915 472.752 228.575 471.252 225.895 C 470.632 224.805 470.152 223.895 469.482 223.135 C 466.172 219.375 458.392 219.535 407.842 220.625 L 405.012 220.685 C 374.122 221.345 342.832 221.875 335.472 221.865 C 322.132 221.845 322.112 221.845 322.622 219.595 C 325.082 208.755 335.102 177.155 337.002 174.245 C 338.802 171.495 345.402 170.975 394.342 169.725 C 465.592 167.895 501.472 167.575 502.642 168.745 C 503.252 169.355 505.172 169.845 506.922 169.845 C 518.392 169.845 529.052 181.905 534.272 200.805 C 536.912 210.375 537.25 227.272 536.332 230.855 C 536.079 231.842 535.631 234.457 534.692 239.505 C 533.177 247.645 531.322 258.965 527.322 266.975 C 523.682 274.225 514.482 285.575 507.462 291.445 C 498.842 298.655 471.872 308.845 469.732 308.845 C 467.262 308.845 466.342 309.285 466.342 310.475 C 466.342 312.095 479.992 332.035 481.532 332.675 C 481.982 332.865 482.342 333.415 482.342 333.915 C 482.342 334.415 482.982 335.615 483.762 336.585 C 489.792 344.085 494.272 349.875 496.342 352.845 C 497.692 354.765 499.152 356.795 499.592 357.345 C 503.592 362.325 511.342 372.975 511.342 373.495 C 511.342 373.855 512.462 375.635 513.842 377.435 C 515.222 379.235 516.342 381.115 516.342 381.615 C 516.342 382.115 505.882 382.825 493.092 383.185 Z M 155.352 393.215 C 138.501 394.29 140.581 394.775 125.512 395.615 C 124.039 395.697 109.662 395.255 93.562 395.095 L 64.272 394.815 L 66.992 390.075 C 70.152 384.555 94.672 346.225 96.782 343.495 C 98.092 341.785 100.812 341.565 130.032 340.795 C 161.072 339.975 171.932 339.115 175.892 337.145 C 176.962 336.605 181.442 334.425 185.842 332.285 C 195.312 327.675 200.362 323.375 205.372 315.665 C 209.422 309.425 212.132 303.025 215.252 292.345 C 216.372 288.495 218.852 280.175 220.752 273.845 C 222.652 267.525 227.422 251.545 231.362 238.345 C 242.012 202.595 242.342 201.565 243.902 198.695 C 244.692 197.235 245.342 195.115 245.342 193.995 C 245.342 192.875 245.792 191.685 246.342 191.345 C 246.892 191.005 247.352 189.745 247.372 188.535 C 247.392 187.335 248.262 183.865 249.302 180.845 L 251.202 175.345 L 266.522 174.725 C 274.952 174.385 288.722 174.055 297.132 173.975 C 312.352 173.845 311.588 174.102 311.908 175.372 C 312.298 176.942 308.092 192.675 306.792 196.815 C 305.492 200.955 303.232 208.395 301.762 213.345 C 300.302 218.295 298.262 225.045 297.232 228.345 C 293.142 241.465 284.992 270.245 282.882 276.845 C 281.032 282.615 278.532 290.725 277.322 294.845 C 273.522 307.765 267.182 326.175 265.102 330.345 C 251.572 357.455 228.242 379.145 203.342 387.765 C 192.332 391.575 182.842 391.461 155.352 393.215 Z M 334.502 385.535 C 332.902 387.555 331.822 387.645 303.102 388.085 C 286.752 388.335 273.192 388.365 272.972 388.145 C 272.752 387.925 273.652 384.575 274.962 380.695 C 276.272 376.825 280.822 358.075 282.812 351.625 C 284.792 345.185 288.802 331.105 289.362 329.415 C 289.922 327.725 292.212 320.045 294.442 312.345 C 296.672 304.645 300.092 292.945 302.032 286.345 C 303.972 279.745 305.902 272.995 306.332 271.345 C 307.122 268.305 311.752 252.595 312.672 249.845 C 312.952 249.025 313.432 247.145 313.752 245.685 L 314.332 243.025 L 343.592 242.575 C 359.682 242.335 373.802 241.805 374.972 241.405 C 377.032 240.695 377.072 240.835 376.152 245.505 C 374.912 251.785 372.502 260.885 370.192 268.065 C 369.172 271.205 365.262 286.215 364.192 289.805 C 363.122 293.405 356.042 317.505 354.702 322.055 C 353.352 326.615 351.562 332.825 350.702 335.845 C 348.902 342.205 344.042 358.195 340.832 368.345 C 339.612 372.195 338.062 377.165 337.382 379.395 C 336.712 381.615 335.412 384.385 334.502 385.535 Z" style="fill: rgb(9, 88, 238);"></path>
  </g>
  <text style="fill: rgb(9, 88, 238); font-family: &quot;Arial Black&quot;; font-size: 28px; font-style: italic; white-space: pre;" transform="matrix(4.718678, 0, 0, 4.718678, -285.810516, -1573.938354)"><tspan x="72.85" y="435.087">CÂMBIO</tspan><tspan x="72.85" dy="1em">​</tspan></text>
  <text style="fill: rgb(9, 88, 238); font-family: &quot;Arial Black&quot;; font-size: 28px; font-style: italic; white-space: pre;" transform="matrix(2.625576, 0, 0, 2.625576, -110.697571, -588.205627)"><tspan x="72.85" y="435.087">AUTOMÁTICO</tspan><tspan x="72.85" dy="1em">​</tspan></text>
</svg>